<?xml version="1.0" standalone="no"?>
<!DOCTYPE svg PUBLIC "-//W3C//DTD SVG 20010904//EN"
 "http://www.w3.org/TR/2001/REC-SVG-20010904/DTD/svg10.dtd">
<svg version="1.0" xmlns="http://www.w3.org/2000/svg"
 width="1563.000000pt" height="1563.000000pt" viewBox="0 0 1563.000000 1563.000000"
 preserveAspectRatio="xMidYMid meet">

<g transform="translate(0.000000,1563.000000) scale(0.100000,-0.100000)"
fill="#000000" stroke="none">
<path d="M6796 13388 c-10 -14 -16 -44 -16 -84 0 -91 -40 -191 -136 -341 -49
-76 -275 -340 -407 -476 -123 -126 -166 -197 -118 -197 35 0 288 243 493 475
36 41 148 212 209 320 32 57 34 65 38 178 3 119 -3 147 -35 147 -7 0 -20 -10
-28 -22z"/>
<path d="M6954 13079 c-4 -7 -19 -52 -34 -100 -20 -65 -48 -121 -103 -206 -41
-65 -81 -130 -88 -144 -20 -38 -117 -177 -129 -184 -16 -10 -12 -45 5 -45 8 0
15 4 15 10 0 13 31 49 51 60 13 8 16 4 13 -16 -1 -14 -10 -34 -18 -43 -25 -27
-19 -33 23 -26 31 5 41 3 49 -11 8 -15 13 -15 40 -3 22 10 32 22 37 46 8 43 2
51 -33 45 -55 -8 -47 48 19 130 58 73 162 277 178 350 11 47 4 148 -10 148 -4
0 -11 -5 -15 -11z"/>
<path d="M5436 12353 c-62 -62 -128 -178 -141 -248 -4 -22 -29 -87 -57 -145
-56 -119 -69 -177 -56 -252 5 -29 13 -84 18 -123 11 -86 33 -188 55 -251 30
-89 123 -259 217 -396 10 -15 18 -32 18 -37 0 -15 121 -181 144 -197 28 -19
33 -1 10 34 -29 42 -64 110 -64 122 0 14 -68 113 -110 160 -32 37 -150 268
-150 295 0 9 -7 29 -15 44 -14 29 -48 278 -39 292 2 4 9 59 15 121 9 104 16
126 74 273 82 206 98 240 135 295 59 88 29 95 -54 13z"/>
<path d="M6563 12374 c-7 -7 -13 -23 -13 -36 l0 -22 16 22 c19 27 16 58 -3 36z"/>
<path d="M6520 12213 c-8 -3 -32 -21 -53 -39 -24 -22 -47 -34 -66 -34 l-29 0
32 -65 c34 -67 53 -95 66 -95 3 0 19 37 34 83 15 45 34 92 42 104 27 42 15 61
-26 46z"/>
<path d="M6700 12197 c0 -10 -5 -26 -12 -36 -21 -34 3 -208 39 -283 27 -57 48
-137 59 -227 3 -19 7 -38 10 -43 3 -5 6 -50 5 -100 -1 -73 -6 -103 -27 -152
-14 -34 -28 -70 -31 -81 -6 -20 -6 -20 15 -1 12 10 32 39 44 65 21 42 23 60
23 196 0 122 -3 158 -18 194 -10 25 -22 63 -27 85 -4 23 -20 97 -35 166 -15
69 -28 146 -28 172 -2 43 -17 83 -17 45z"/>
<path d="M4892 12112 c-82 -82 -142 -314 -163 -638 -10 -155 -10 -209 0 -280
23 -158 96 -346 194 -497 42 -64 46 -44 8 32 -17 33 -31 67 -31 75 0 9 -14 50
-31 93 -52 131 -60 193 -65 483 -4 241 -2 272 16 342 11 43 20 87 20 98 0 12
22 66 50 121 54 108 69 180 38 187 -9 2 -26 -6 -36 -16z"/>
<path d="M6178 11991 l-31 -28 11 -104 c7 -64 10 -196 7 -344 -3 -132 -5 -244
-5 -250 0 -5 4 -37 9 -70 5 -33 10 -90 10 -127 1 -53 4 -68 16 -68 8 0 15 6
15 13 0 8 14 42 32 78 31 62 32 68 31 179 -1 63 -8 164 -14 224 -7 68 -10 173
-6 277 8 231 -8 280 -75 220z"/>
<path d="M7000 11985 c0 -2 12 -31 27 -62 38 -84 41 -92 53 -156 7 -36 9 -95
5 -155 -6 -83 -14 -115 -56 -223 -66 -171 -66 -175 14 -103 57 51 84 105 119
238 14 57 18 94 14 130 -12 96 -60 218 -101 261 -11 11 -29 33 -40 48 -18 24
-35 35 -35 22z"/>
<path d="M9510 11803 c1 -56 64 -103 207 -158 54 -20 118 -45 143 -56 25 -10
71 -25 103 -33 102 -25 176 -81 246 -184 23 -35 53 -67 67 -72 29 -12 38 -33
55 -130 7 -41 25 -103 40 -137 15 -34 27 -74 26 -90 -2 -24 1 -28 23 -25 39 4
46 18 27 57 -9 20 -17 47 -17 61 0 39 -18 68 -34 54 -10 -8 -15 -6 -18 7 -8
33 -1 148 12 201 13 49 16 52 39 47 l26 -5 0 82 c-1 96 -23 170 -64 208 -15
14 -39 44 -55 68 -16 23 -37 42 -47 42 -9 0 -31 14 -47 30 -34 34 -44 36 -62
15 -14 -17 -60 -21 -60 -5 0 7 -6 7 -19 1 -13 -8 -18 -20 -16 -43 2 -29 6 -33
28 -30 16 2 29 -3 36 -15 6 -10 11 -12 11 -5 0 18 50 15 57 -4 9 -23 -15 -33
-48 -21 -23 9 -32 8 -47 -6 -17 -16 -22 -16 -48 -3 -16 8 -46 22 -66 31 -21 9
-38 20 -38 25 0 14 -70 41 -95 38 -22 -3 -24 0 39 -51 17 -14 26 -29 22 -35
-10 -16 -89 -15 -130 2 -18 7 -57 19 -86 25 -86 19 -136 46 -167 90 -30 44
-43 51 -43 24z m630 -243 c0 -16 18 -32 59 -53 30 -15 38 -35 17 -43 -22 -9
-66 22 -66 46 0 13 -7 20 -20 20 -11 0 -27 12 -37 26 -16 25 -16 27 2 41 17
12 21 12 32 -4 7 -9 13 -24 13 -33z"/>
<path d="M10618 11778 c7 -7 12 -29 12 -49 0 -21 5 -41 11 -45 20 -12 41 -78
50 -154 5 -47 14 -79 24 -86 22 -17 18 -58 -10 -100 -14 -20 -25 -43 -25 -51
0 -7 -23 -24 -52 -36 -50 -22 -53 -22 -70 -5 -10 10 -29 18 -43 18 -22 0 -25
-3 -19 -27 12 -56 13 -57 34 -38 25 22 39 12 18 -12 -24 -28 -28 -61 -13 -110
8 -27 10 -54 5 -67 -4 -12 -10 -46 -13 -77 -14 -137 -18 -142 -126 -135 -126
8 -142 -10 -53 -61 26 -15 63 -39 82 -53 19 -15 56 -36 81 -47 26 -12 55 -33
65 -48 11 -16 48 -58 84 -95 36 -37 76 -82 89 -100 26 -34 84 -65 107 -56 19
7 17 51 -6 116 -11 30 -19 81 -20 113 0 32 -4 56 -8 53 -5 -3 -15 6 -22 20
-11 20 -11 50 -2 167 7 78 13 169 13 202 0 66 11 106 23 87 4 -6 9 -46 13 -89
8 -102 8 -98 -1 -170 -4 -40 -3 -63 3 -63 5 0 12 10 16 23 15 57 29 105 41
144 8 23 18 70 24 105 5 35 17 88 27 118 10 32 17 88 17 135 0 72 -4 86 -34
140 -18 33 -44 75 -59 93 -14 19 -34 45 -43 59 -25 39 -119 133 -132 133 -7 0
-22 14 -34 30 -13 17 -32 30 -44 30 -17 0 -19 -3 -10 -12z m139 -544 c24 -24
25 -30 18 -82 -4 -31 -11 -104 -17 -162 -28 -301 -26 -290 -68 -290 -50 0 -68
27 -76 110 -9 98 -9 246 1 289 11 48 86 161 107 161 5 0 21 -12 35 -26z"/>
<path d="M5550 11764 c0 -6 -15 -15 -32 -20 l-32 -10 39 -24 c22 -13 69 -46
105 -72 36 -27 106 -74 155 -106 50 -31 101 -69 113 -84 13 -16 28 -28 33 -28
14 0 -19 60 -37 67 -9 3 -14 20 -14 49 0 35 -4 46 -22 55 -13 6 -32 20 -43 30
-33 29 -197 121 -223 123 -13 2 -28 9 -33 17 -5 8 -9 9 -9 3z"/>
<path d="M10541 11674 c0 -11 3 -14 6 -6 3 7 2 16 -1 19 -3 4 -6 -2 -5 -13z"/>
<path d="M10574 11548 c18 -62 21 -68 24 -41 3 26 -30 113 -42 113 -2 0 6 -33
18 -72z"/>
<path d="M9530 11371 c-60 -63 -91 -138 -97 -239 -4 -74 -2 -94 16 -135 21
-48 61 -97 81 -97 6 0 1 22 -10 53 -33 87 -22 226 26 318 9 19 21 48 25 64 4
17 11 40 14 53 11 35 -13 27 -55 -17z"/>
<path d="M9884 11370 c-30 -63 -37 -104 -29 -167 8 -65 18 -62 21 7 1 27 10
74 19 103 9 30 15 65 13 78 -3 21 -6 18 -24 -21z"/>
<path d="M5956 11392 c-3 -5 4 -15 15 -22 10 -8 19 -19 19 -25 0 -6 8 -20 18
-31 45 -48 92 -195 128 -399 18 -97 40 -130 37 -53 -1 24 -3 43 -4 43 -1 0 -3
11 -4 25 -4 53 -36 207 -52 250 -8 25 -26 56 -38 70 -12 14 -41 53 -64 88 -43
64 -46 67 -55 54z"/>
<path d="M7333 11365 c-6 -14 -9 -34 -6 -44 8 -33 -28 -112 -83 -181 -35 -43
-49 -67 -41 -72 18 -10 4 -141 -22 -210 -19 -51 -43 -107 -99 -228 -36 -78
-85 -141 -154 -198 -88 -73 -167 -152 -150 -152 7 0 12 5 12 10 0 6 7 10 15
10 8 0 23 4 33 10 9 5 60 30 112 54 52 24 122 63 156 88 33 25 70 51 82 57 46
24 161 211 182 294 40 153 41 165 38 290 -2 92 -7 130 -16 136 -24 14 -34 86
-17 118 20 38 19 43 -7 43 -15 0 -27 -9 -35 -25z"/>
<path d="M6823 11278 c-38 -27 -39 -30 -17 -64 l17 -25 24 23 c33 31 48 69 31
80 -18 11 -20 11 -55 -14z"/>
<path d="M8720 11145 c0 -12 37 -75 45 -75 3 0 5 6 5 14 0 17 -49 77 -50 61z"/>
<path d="M8710 11032 c0 -27 41 -100 71 -127 19 -16 27 -21 18 -10 -9 11 -21
35 -27 53 -12 34 -62 102 -62 84z"/>
<path d="M11225 10994 c-25 -15 -33 -24 -22 -24 10 0 35 11 55 25 46 32 20 31
-33 -1z"/>
<path d="M9930 10982 c0 -16 -7 -35 -16 -43 -9 -7 -30 -33 -47 -58 -26 -38
-31 -57 -38 -133 -5 -63 -12 -95 -25 -109 -21 -23 -33 -24 -94 -2 l-48 17 -37
-28 c-31 -24 -44 -28 -82 -23 -37 4 -49 1 -74 -20 -46 -39 -212 -69 -304 -56
-56 8 -76 8 -102 -4 -25 -12 -36 -12 -54 -2 l-23 12 30 23 29 24 -45 0 c-25 0
-62 -4 -82 -9 -32 -8 -41 -5 -62 14 -16 15 -33 21 -48 18 -15 -3 -29 2 -37 11
-8 9 -21 16 -30 16 -9 0 -27 9 -41 20 -14 11 -35 20 -46 20 -12 0 -24 6 -27
14 -3 8 -34 28 -69 44 -40 19 -74 43 -93 68 -53 67 -145 154 -164 154 -20 0
-36 -26 -21 -35 4 -3 14 -3 22 0 14 5 68 -66 68 -90 0 -9 25 -41 55 -72 30
-31 55 -61 55 -65 0 -4 5 -8 11 -8 6 0 9 -6 6 -14 -7 -17 38 -62 47 -48 9 16
78 -9 84 -30 2 -10 13 -18 23 -18 11 0 37 -11 58 -24 21 -14 62 -27 94 -31 53
-7 55 -8 53 -34 -3 -20 -10 -27 -32 -31 -27 -5 -28 -7 -9 -17 11 -6 36 -13 56
-17 31 -5 37 -3 42 14 4 15 13 20 40 20 36 0 56 13 37 25 -15 9 -3 24 18 21 9
-2 17 -11 17 -20 0 -24 24 -35 92 -42 72 -8 94 -22 61 -40 -21 -12 -19 -13 26
-14 52 0 105 13 146 37 103 59 145 71 280 83 74 6 148 16 163 22 24 9 31 8 51
-11 12 -11 26 -21 30 -21 4 0 27 -14 52 -31 24 -16 69 -39 99 -49 30 -10 65
-26 77 -34 12 -9 40 -16 61 -16 33 0 40 -5 59 -36 16 -27 26 -34 46 -32 102
12 87 243 -23 363 -30 32 -45 57 -45 75 0 35 -74 111 -137 139 -76 34 -77 35
-94 86 -18 57 -39 71 -39 27z m57 -207 c12 -21 32 -44 45 -51 14 -7 38 -32 53
-56 16 -24 45 -62 63 -85 34 -42 40 -82 14 -91 -7 -2 -55 38 -107 90 -72 71
-95 100 -95 120 0 14 -6 28 -14 31 -21 8 -32 67 -15 78 21 13 32 6 56 -36z"/>
<path d="M5070 10965 c0 -8 4 -15 10 -15 5 0 7 7 4 15 -4 8 -8 15 -10 15 -2 0
-4 -7 -4 -15z"/>
<path d="M11244 10909 c-26 -23 -58 -46 -71 -52 -13 -5 -23 -14 -23 -18 0 -4
-20 -29 -44 -55 -50 -57 -86 -122 -86 -158 0 -45 -19 -37 -25 11 -11 82 -13
81 -14 -9 -1 -113 10 -138 61 -138 21 0 38 -5 38 -10 0 -19 -28 -64 -54 -89
-45 -42 -36 -67 59 -156 47 -44 85 -83 85 -87 0 -7 11 -22 45 -62 40 -47 46
-103 15 -146 -10 -15 -20 -45 -21 -66 -3 -55 17 -181 37 -234 26 -67 34 -163
42 -495 5 -199 12 -310 20 -329 9 -21 10 -37 2 -61 -15 -47 5 -178 37 -233 46
-79 112 -111 157 -77 11 8 30 15 43 15 13 0 29 10 39 25 22 33 15 93 -31 267
-48 183 -92 407 -99 504 -4 62 -13 100 -39 160 -19 43 -38 90 -42 104 -4 14
-22 61 -41 106 -19 45 -34 98 -34 118 0 31 -3 36 -24 36 -13 0 -26 6 -29 14
-7 17 17 41 31 32 13 -8 28 12 36 48 4 16 17 43 30 60 13 17 26 43 30 58 8 34
-21 98 -69 151 -34 38 -45 47 -142 116 -26 19 -51 39 -55 45 -13 19 -8 47 13
74 19 24 19 27 3 32 -11 4 -14 9 -7 13 6 4 18 4 27 1 10 -4 31 10 59 39 35 35
50 61 70 124 39 122 59 230 47 253 -9 18 -8 39 7 93 8 31 -33 19 -83 -24z
m-102 -299 c-2 -51 -8 -81 -19 -92 -27 -30 -36 -21 -28 25 4 23 7 57 6 75 -2
48 8 74 27 70 14 -3 17 -15 14 -78z m-127 -49 c3 -5 1 -12 -5 -16 -5 -3 -10 1
-10 9 0 18 6 21 15 7z m15 -41 c0 -5 -2 -10 -4 -10 -3 0 -8 5 -11 10 -3 6 -1
10 4 10 6 0 11 -4 11 -10z"/>
<path d="M5086 10932 c-8 -13 24 -116 39 -125 8 -4 25 -27 36 -50 26 -51 124
-147 150 -147 14 0 19 7 19 26 0 19 -7 28 -29 35 -27 9 -61 59 -61 87 0 6 -16
23 -35 39 -19 16 -42 46 -51 68 -14 36 -45 75 -58 75 -3 0 -7 -3 -10 -8z"/>
<path d="M8860 10926 c0 -45 61 -106 105 -106 7 0 15 -7 18 -15 8 -19 72 -46
100 -41 24 3 36 26 13 26 -24 0 -109 49 -131 76 -12 13 -24 24 -29 24 -4 0
-23 12 -42 26 -28 22 -34 23 -34 10z"/>
<path d="M5755 10910 c-9 -29 24 -78 57 -85 32 -7 32 -8 16 -34 -9 -16 -6 -23
23 -49 19 -17 36 -26 38 -20 6 17 -21 87 -36 92 -8 3 -23 26 -34 51 -24 54
-54 75 -64 45z"/>
<path d="M6486 10754 c-63 -73 -106 -157 -106 -205 0 -17 2 -18 14 -7 40 41
176 258 176 283 0 19 -28 -5 -84 -71z"/>
<path d="M6789 10795 c-19 -7 -53 -22 -75 -33 -44 -22 -204 -172 -204 -190 0
-7 -5 -12 -12 -12 -6 0 -8 -3 -5 -7 4 -3 17 2 30 13 40 36 136 94 188 115 93
36 160 93 143 120 -7 12 -21 11 -65 -6z"/>
<path d="M9138 10763 c7 -3 16 -2 19 1 4 3 -2 6 -13 5 -11 0 -14 -3 -6 -6z"/>
<path d="M9626 10754 c-11 -27 -7 -34 29 -51 28 -13 38 -14 48 -4 9 10 5 18
-23 41 -41 34 -46 35 -54 14z"/>
<path d="M11001 10754 c0 -11 3 -14 6 -6 3 7 2 16 -1 19 -3 4 -6 -2 -5 -13z"/>
<path d="M5900 10669 c0 -26 33 -83 72 -125 29 -31 60 -136 45 -151 -4 -4 -21
-2 -37 4 -34 13 -36 8 -15 -34 15 -31 38 -56 92 -105 18 -16 33 -42 37 -62 4
-19 13 -39 21 -46 18 -15 20 -80 3 -81 -7 0 -30 -1 -50 -3 -21 -2 -38 1 -38 6
0 4 9 8 21 8 24 0 49 22 49 43 0 13 -5 13 -30 4 -22 -8 -41 -8 -75 1 -25 7
-54 12 -64 12 -10 0 -39 16 -65 36 -26 19 -71 46 -101 60 -30 13 -65 35 -77
49 -12 14 -44 39 -70 56 -26 17 -48 34 -48 38 0 4 -26 34 -57 66 -32 33 -70
75 -86 93 -24 29 -66 44 -67 25 0 -5 -12 -16 -25 -26 -22 -16 -27 -16 -64 -1
-24 10 -38 21 -35 29 3 7 -5 14 -20 17 -22 4 -23 2 -16 -17 9 -25 3 -39 -23
-48 -19 -7 -39 -50 -31 -69 2 -7 21 -24 41 -37 33 -21 35 -25 20 -36 -15 -11
-14 -15 16 -39 17 -15 52 -37 77 -48 139 -62 180 -86 226 -130 64 -62 74 -68
159 -103 179 -73 239 -114 228 -155 -8 -31 -28 -41 -83 -42 -42 0 -55 4 -67
21 -12 17 -24 21 -64 20 -42 -2 -54 2 -78 25 -27 26 -61 39 -135 53 -24 5 -28
3 -23 -11 9 -22 -9 -20 -40 4 -14 11 -31 20 -38 20 -19 0 -79 32 -88 47 -4 7
-18 13 -30 13 -12 0 -44 18 -70 40 -26 21 -71 50 -100 64 -29 14 -67 41 -86
61 -19 19 -39 35 -45 35 -7 0 -36 21 -65 48 -30 26 -72 59 -94 74 -22 14 -49
43 -61 64 -19 35 -64 70 -74 59 -7 -7 35 -90 52 -104 9 -8 16 -20 16 -28 0 -8
12 -34 28 -57 15 -22 34 -54 42 -71 8 -16 17 -32 20 -35 11 -9 38 -90 31 -90
-25 0 -141 150 -141 183 0 8 -6 20 -14 26 -17 15 -96 203 -96 230 0 12 6 21
14 21 24 0 26 27 3 48 -28 27 -74 44 -82 32 -9 -15 54 -209 84 -260 41 -71 44
-74 90 -141 25 -35 48 -65 53 -67 4 -2 8 -10 8 -18 0 -8 5 -14 10 -14 6 0 10
-6 10 -13 0 -13 44 -59 151 -157 87 -79 157 -129 255 -180 43 -24 83 -46 88
-51 6 -5 27 -9 47 -9 21 0 41 -4 44 -10 3 -5 17 -10 29 -10 13 0 38 -10 57
-23 46 -31 105 -54 191 -73 40 -9 80 -20 89 -25 10 -5 61 -13 114 -18 76 -7
101 -13 117 -29 27 -26 18 -69 -18 -82 -38 -15 -144 -12 -202 5 -84 25 -244
56 -259 51 -22 -9 31 -73 65 -79 48 -9 199 -55 222 -67 14 -7 73 -14 145 -15
104 -2 129 -6 176 -27 90 -42 123 -50 153 -38 22 8 30 6 46 -10 25 -25 25 -42
3 -62 -26 -22 -254 -24 -351 -3 -77 16 -177 20 -232 8 l-33 -6 29 -24 29 -23
-37 0 c-38 0 -148 40 -231 84 -51 28 -82 33 -92 15 -10 -16 23 -35 100 -59 39
-11 77 -25 85 -29 8 -4 40 -14 70 -21 30 -8 60 -17 65 -21 6 -4 33 -10 60 -14
28 -4 61 -13 75 -20 47 -24 205 -73 259 -80 40 -5 55 -12 58 -26 7 -27 28 -23
42 8 17 36 36 14 32 -39 0 -9 -12 -29 -24 -45 -25 -29 -42 -76 -38 -105 1 -9
-9 -38 -23 -62 -23 -42 -66 -187 -66 -225 0 -9 -9 -22 -19 -28 -11 -7 -18 -20
-16 -30 2 -10 7 -31 10 -48 l6 -29 22 34 c12 20 20 46 18 63 -1 16 4 36 12 45
17 20 26 55 33 123 2 27 14 66 26 87 12 20 35 61 50 91 16 30 34 61 40 69 7 8
17 24 23 35 5 12 36 39 68 60 l57 40 106 -13 c179 -21 355 2 484 64 41 20 79
36 85 36 5 0 55 25 110 55 89 49 103 54 126 44 15 -6 40 -9 55 -7 24 2 28 7
26 26 -4 27 5 28 38 2 14 -11 30 -20 35 -20 6 0 35 -23 65 -51 57 -52 179
-119 217 -119 43 0 73 -18 73 -45 0 -45 -36 -58 -137 -50 -48 4 -107 16 -132
27 -71 30 -163 58 -172 52 -33 -20 34 -77 124 -106 34 -10 110 -23 168 -28 58
-4 123 -15 144 -24 43 -18 148 -21 245 -6 86 14 270 92 270 115 0 6 23 24 51
40 51 27 57 54 8 37 -41 -14 -345 -7 -364 8 -59 49 -34 75 80 84 55 4 100 13
125 26 24 12 60 20 92 20 29 1 71 8 93 16 22 8 61 21 86 28 62 18 102 49 147
114 43 63 79 90 219 162 132 69 199 120 291 222 41 46 97 107 123 137 46 50
67 89 35 62 -16 -14 -29 0 -20 21 9 20 74 71 91 71 8 0 18 10 23 22 4 11 15
27 24 34 9 7 16 19 16 26 0 7 11 20 25 29 14 9 33 33 44 54 23 44 39 58 114
96 47 24 59 27 72 16 13 -10 23 -9 60 11 25 13 45 28 45 32 0 16 -45 46 -68
47 -44 0 -258 -126 -292 -173 -8 -11 -46 -52 -84 -91 -38 -39 -80 -85 -93
-103 -27 -35 -155 -143 -169 -143 -5 0 -31 -16 -58 -35 -33 -23 -66 -37 -98
-41 -27 -4 -51 -11 -54 -15 -7 -11 -25 -11 -42 -1 -20 13 15 114 55 159 18 21
35 45 38 53 3 9 36 44 73 77 65 58 147 104 248 139 56 19 159 82 159 97 0 29
-116 14 -187 -24 -11 -6 -41 -16 -66 -24 -93 -26 -157 -55 -176 -81 -11 -15
-44 -37 -73 -50 -43 -19 -53 -28 -53 -48 0 -22 -6 -26 -52 -34 -42 -8 -46 -10
-20 -11 24 -1 32 -6 32 -19 0 -25 -25 -46 -83 -67 -54 -20 -76 -54 -58 -90 15
-30 24 -85 14 -85 -12 0 -42 -53 -46 -81 -3 -21 -10 -24 -47 -25 -23 -1 -52
-7 -65 -14 -12 -6 -35 -10 -51 -8 -22 2 -34 -3 -48 -22 -10 -15 -16 -18 -12
-7 3 11 0 17 -9 17 -8 0 -15 -7 -15 -16 0 -10 -6 -14 -15 -10 -9 3 -15 0 -15
-9 0 -17 -16 -20 -25 -5 -8 13 -45 13 -45 1 0 -5 6 -12 13 -14 9 -4 8 -8 -3
-17 -12 -9 -9 -11 18 -7 20 2 32 -1 32 -8 0 -12 25 -18 183 -46 113 -21 125
-61 27 -93 -64 -21 -105 -20 -241 5 -63 12 -141 23 -174 25 -33 2 -77 11 -98
19 -21 9 -43 13 -48 10 -5 -4 -9 -1 -9 4 0 6 -4 11 -9 11 -4 0 -6 -10 -4 -23
7 -34 -20 -53 -54 -38 l-26 12 22 23 c30 32 26 43 -15 51 -20 3 -44 13 -52 22
-11 11 -28 13 -61 9 -25 -3 -40 -3 -33 0 24 11 12 26 -17 19 -30 -6 -98 11
-176 46 -22 9 -53 20 -70 24 -16 3 -41 14 -55 23 -30 19 -60 23 -53 7 8 -21
90 -75 211 -137 64 -34 133 -71 152 -83 19 -12 79 -43 133 -69 54 -26 107 -57
117 -69 18 -19 19 -22 4 -38 -22 -24 -115 -35 -165 -20 -29 9 -44 9 -60 1 -14
-8 -29 -8 -48 -2 -20 7 -32 6 -46 -4 -25 -19 -74 -18 -81 1 -4 8 -13 15 -21
15 -9 0 -13 -6 -10 -14 9 -22 -14 -36 -56 -36 -34 0 -38 2 -35 23 2 15 11 23
28 25 14 2 29 7 33 11 5 5 25 6 47 4 41 -5 66 13 28 21 -13 3 -48 10 -78 16
-30 6 -62 14 -70 17 -8 4 -20 5 -27 4 -6 -1 -14 3 -18 8 -3 6 -12 8 -20 4 -9
-3 -21 -1 -28 4 -6 5 -23 10 -35 11 -21 1 -23 -2 -17 -26 3 -15 15 -33 25 -41
11 -7 20 -17 20 -21 0 -16 -140 -9 -215 9 -57 15 -84 17 -105 10 -21 -8 -35
-7 -52 2 -13 7 -58 13 -100 14 -66 1 -82 5 -117 29 -27 19 -57 30 -87 32 -47
4 -71 16 -192 102 -56 39 -76 60 -160 177 -56 76 -94 196 -112 346 -4 43 -15
90 -23 105 -8 16 -20 47 -27 69 -7 22 -34 78 -60 125 -26 47 -53 103 -60 125
-7 22 -34 62 -60 90 -26 27 -57 69 -69 92 -18 37 -46 63 -65 63 -3 0 -6 -10
-6 -21z m-590 -216 c0 -17 -10 -16 -32 4 -26 23 -22 35 7 21 14 -6 25 -17 25
-25z m80 -8 c0 -8 -4 -15 -10 -15 -5 0 -10 7 -10 15 0 8 5 15 10 15 6 0 10 -7
10 -15z m40 -45 c11 -21 4 -25 -24 -14 -9 3 -16 12 -16 20 0 21 28 17 40 -6z
m-425 -299 c-3 -6 -10 -11 -14 -11 -10 0 -31 46 -24 53 9 10 46 -31 38 -42z
m963 -233 c7 -7 12 -22 12 -35 0 -19 -5 -23 -29 -23 -16 0 -35 7 -42 16 -11
14 -10 19 10 35 27 22 33 23 49 7z"/>
<path d="M4970 10611 c0 -10 16 -36 35 -57 44 -47 47 -24 5 34 -34 47 -40 50
-40 23z"/>
<path d="M8671 10511 c-11 -7 -9 -12 11 -25 31 -20 87 -40 95 -33 7 7 -12 26
-49 50 -31 19 -37 20 -57 8z"/>
<path d="M5070 10481 c0 -11 42 -43 48 -37 2 2 -3 13 -10 25 -13 21 -38 29
-38 12z"/>
<path d="M9698 10303 c7 -3 16 -2 19 1 4 3 -2 6 -13 5 -11 0 -14 -3 -6 -6z"/>
<path d="M7460 10231 c0 -13 131 -131 145 -131 7 0 15 -6 18 -14 3 -8 19 -17
36 -21 20 -4 31 -13 33 -28 2 -17 12 -23 43 -28 22 -3 67 -16 100 -28 99 -37
146 -49 237 -62 221 -31 520 23 468 85 -17 22 -66 20 -98 -3 -41 -28 -86 -35
-119 -17 -15 8 -22 15 -15 16 14 0 35 47 27 61 -4 5 -29 -3 -58 -18 -44 -22
-64 -26 -124 -24 -61 1 -76 -2 -93 -19 -24 -24 -50 -26 -50 -5 0 8 7 15 15 15
8 0 15 7 15 15 0 10 -11 15 -35 15 -19 0 -43 4 -53 9 -30 15 -88 31 -113 31
-24 0 -24 0 6 -24 17 -14 50 -27 78 -31 26 -4 44 -11 41 -16 -3 -5 3 -9 12 -9
10 0 15 -2 12 -5 -3 -3 -36 1 -74 9 -57 12 -74 20 -97 48 -15 18 -33 33 -40
34 -6 0 -25 2 -40 2 -16 1 -26 6 -23 10 3 5 -4 18 -14 30 -21 22 -50 20 -50
-4 0 -8 -2 -14 -5 -14 -12 0 -50 27 -76 54 -34 34 -89 76 -101 76 -4 0 -8 -4
-8 -9z m660 -251 c0 -5 -5 -10 -11 -10 -5 0 -7 5 -4 10 3 6 8 10 11 10 2 0 4
-4 4 -10z"/>
<path d="M7620 10150 c0 -5 5 -10 10 -10 6 0 10 5 10 10 0 6 -4 10 -10 10 -5
0 -10 -4 -10 -10z"/>
<path d="M8350 10090 c0 -5 4 -10 9 -10 6 0 13 5 16 10 3 6 -1 10 -9 10 -9 0
-16 -4 -16 -10z"/>
<path d="M9361 9984 c0 -11 3 -14 6 -6 3 7 2 16 -1 19 -3 4 -6 -2 -5 -13z"/>
<path d="M10483 9944 c-8 -21 13 -81 43 -120 13 -18 28 -54 34 -80 13 -57 73
-140 134 -184 48 -36 108 -39 114 -6 5 25 -91 213 -129 254 -17 18 -37 32 -45
32 -17 0 -14 -37 12 -138 21 -79 18 -93 -11 -57 -15 18 -25 43 -25 62 0 18
-11 67 -25 109 -14 42 -25 87 -25 100 0 38 -64 61 -77 28z"/>
<path d="M9825 9758 c-28 -61 -33 -148 -10 -188 16 -29 16 -29 19 29 2 32 8
47 26 61 20 15 25 29 28 84 4 62 3 66 -17 66 -17 0 -28 -13 -46 -52z"/>
<path d="M5155 9649 c-15 -23 6 -59 45 -79 47 -24 57 -25 40 -5 -7 8 -9 22 -6
31 6 15 8 15 31 0 13 -9 33 -16 43 -16 10 0 23 -5 30 -12 7 -7 12 -8 12 -2 0
20 -35 43 -78 53 -24 5 -51 16 -61 25 -20 18 -47 21 -56 5z"/>
<path d="M8250 9634 c0 -11 8 -14 32 -12 46 4 49 28 4 28 -26 0 -36 -4 -36
-16z"/>
<path d="M7130 9609 c0 -13 73 -99 84 -99 2 0 -2 12 -9 28 -19 36 -75 91 -75
71z"/>
<path d="M5260 9546 c0 -13 28 -36 44 -36 9 0 16 -4 16 -10 0 -5 15 -10 33
-10 31 1 30 2 -16 20 -27 10 -55 24 -63 30 -8 7 -14 9 -14 6z"/>
<path d="M9908 9463 c3 -32 9 -59 13 -61 11 -5 12 -32 1 -32 -5 0 -15 12 -22
28 l-14 27 -4 -25 c-2 -13 1 -26 7 -28 6 -2 11 -10 11 -18 0 -8 4 -14 9 -14 5
0 12 -10 14 -22 4 -20 4 -19 6 5 0 15 3 27 6 27 9 0 54 -54 55 -63 0 -5 9 -22
21 -38 32 -46 -2 -36 -37 10 -16 22 -32 37 -36 35 -8 -5 32 -91 62 -134 10
-14 38 -66 62 -115 l44 -90 -7 -280 c-8 -298 -22 -478 -46 -615 -8 -47 -19
-120 -24 -162 -5 -42 -25 -152 -45 -245 -19 -92 -42 -199 -49 -237 -8 -38 -23
-99 -34 -135 -30 -102 -52 -184 -58 -211 -2 -14 -9 -35 -15 -47 -6 -13 -9 -26
-5 -29 9 -10 42 64 76 176 18 58 38 123 46 145 21 61 53 203 60 265 4 30 18
91 32 135 14 44 31 126 39 183 7 56 18 111 24 122 5 10 10 54 10 97 0 43 7
100 15 127 8 26 18 92 21 145 4 53 15 120 26 150 10 30 19 79 19 110 1 31 4
46 6 34 2 -13 9 -23 15 -23 8 0 9 41 5 134 -4 107 -2 137 8 146 21 17 53 3
109 -49 28 -26 83 -72 121 -104 88 -71 101 -85 163 -178 61 -91 80 -139 122
-306 9 -36 15 -43 36 -43 42 0 49 37 30 177 -9 67 -23 141 -30 165 -8 24 -20
65 -26 91 -14 51 -42 77 -64 58 -9 -7 -19 -3 -37 14 -74 75 -72 71 -59 94 9
18 8 27 -5 47 -9 14 -24 28 -33 31 -9 4 -20 11 -24 17 -6 8 -11 7 -17 -3 -14
-22 -42 -5 -36 22 4 16 -1 29 -20 45 -14 12 -29 22 -33 22 -5 0 -26 16 -48 36
-21 19 -55 43 -74 54 -19 10 -61 43 -92 73 -32 30 -79 69 -105 86 -46 31 -155
162 -174 209 -16 40 -26 23 -21 -35z m582 -543 c0 -5 -7 -10 -15 -10 -8 0 -15
5 -15 10 0 6 7 10 15 10 8 0 15 -4 15 -10z m44 -46 c3 -8 2 -14 -2 -14 -10 0
-32 22 -32 32 0 12 28 -2 34 -18z"/>
<path d="M9841 9494 c0 -11 3 -14 6 -6 3 7 2 16 -1 19 -3 4 -6 -2 -5 -13z"/>
<path d="M7250 9480 c0 -5 5 -10 10 -10 6 0 10 5 10 10 0 6 -4 10 -10 10 -5 0
-10 -4 -10 -10z"/>
<path d="M9860 9445 c0 -8 4 -15 10 -15 5 0 7 7 4 15 -4 8 -8 15 -10 15 -2 0
-4 -7 -4 -15z"/>
<path d="M5496 9421 c5 -5 27 -13 49 -16 38 -7 39 -6 20 9 -21 16 -86 23 -69
7z"/>
<path d="M5668 9363 c7 -3 16 -2 19 1 4 3 -2 6 -13 5 -11 0 -14 -3 -6 -6z"/>
<path d="M5748 9335 c44 -19 98 -29 119 -21 31 12 -34 36 -96 36 l-56 -1 33
-14z"/>
<path d="M5900 9308 c0 -4 9 -8 20 -8 11 0 20 4 20 9 0 6 -9 9 -20 8 -11 -1
-20 -5 -20 -9z"/>
<path d="M10630 8840 c0 -5 5 -10 11 -10 5 0 7 5 4 10 -3 6 -8 10 -11 10 -2 0
-4 -4 -4 -10z"/>
<path d="M6001 8674 c-8 -21 -30 -62 -49 -91 -19 -29 -41 -78 -48 -110 -24
-104 -36 -363 -25 -548 9 -147 15 -187 46 -295 42 -142 62 -219 100 -375 70
-285 90 -578 90 -1315 0 -341 -4 -376 -56 -485 -37 -79 -46 -143 -26 -186 26
-59 31 -91 32 -237 0 -79 5 -146 10 -150 6 -4 11 -22 11 -41 2 -65 107 -121
224 -121 32 0 88 -9 125 -21 55 -17 88 -20 172 -17 104 3 105 3 134 36 26 28
29 40 29 95 -1 59 -21 237 -39 341 -8 47 -30 76 -57 76 -16 0 -24 -46 -22
-125 4 -176 -2 -269 -19 -287 -19 -22 -66 -23 -125 -4 -24 8 -73 17 -109 20
-81 8 -132 32 -186 88 l-41 43 7 95 c5 79 11 101 31 130 14 19 39 54 55 77 17
23 45 50 64 59 37 18 38 18 191 -26 123 -35 126 -35 133 -9 6 23 -13 104 -54
239 -11 36 -43 112 -71 170 -45 93 -51 112 -51 170 1 61 24 147 68 245 7 17
24 59 36 95 25 74 53 110 84 110 27 0 40 -12 96 -80 43 -54 110 -122 206 -210
27 -25 61 -70 76 -100 36 -72 97 -248 97 -280 0 -14 7 -50 15 -80 9 -30 22
-95 31 -144 8 -48 28 -134 45 -190 35 -116 53 -196 64 -281 4 -33 13 -75 20
-95 7 -19 16 -62 19 -95 3 -33 12 -80 21 -104 17 -49 19 -101 6 -148 -13 -46
10 -208 38 -266 41 -85 49 -167 15 -167 -18 0 -30 25 -39 80 -9 59 -65 159
-111 200 -40 35 -63 36 -139 6 -34 -13 -36 -15 -14 -16 14 0 47 -15 74 -32 27
-18 63 -41 82 -51 18 -9 33 -24 33 -32 0 -8 10 -36 21 -60 30 -64 24 -150 -14
-195 -15 -17 -27 -40 -27 -50 0 -19 -4 -20 90 10 14 4 33 11 42 15 12 4 25 -1
42 -18 23 -24 24 -29 22 -133 -2 -60 -8 -134 -14 -164 -6 -30 -17 -84 -23
-120 -9 -45 -13 -235 -14 -605 -2 -519 -3 -542 -24 -605 -11 -36 -20 -85 -20
-110 1 -25 3 -36 6 -25 2 11 8 29 13 40 20 42 39 112 49 175 6 36 18 88 27
115 13 41 16 116 20 397 2 214 8 357 15 375 7 18 8 69 4 143 -4 66 -3 126 3
140 17 45 36 -138 33 -330 -2 -196 1 -305 10 -328 10 -26 5 -241 -7 -337 -11
-77 -59 -290 -90 -397 -8 -26 -14 -53 -14 -61 0 -8 -6 -20 -14 -26 -7 -6 -16
-24 -19 -40 -6 -31 -68 -78 -87 -66 -20 12 -9 -6 27 -46 l38 -42 6 -206 c7
-197 14 -267 28 -275 4 -3 7 44 8 102 3 166 14 342 23 342 12 0 18 -35 13 -82
-5 -44 36 -224 53 -237 30 -21 42 -194 15 -211 -17 -10 22 -24 169 -60 212
-51 420 -64 491 -30 76 35 95 129 61 290 -11 52 -23 122 -26 155 -4 33 -21
107 -38 165 -24 80 -39 114 -65 140 -27 30 -33 44 -33 81 0 25 -4 49 -9 55 -5
5 -28 70 -51 144 -23 74 -63 178 -87 230 -39 81 -47 109 -55 190 -10 108 -4
155 42 300 42 133 48 176 60 425 13 266 25 398 38 445 6 19 15 53 21 76 9 33
21 48 63 76 70 48 165 91 261 117 43 12 96 30 117 41 21 10 71 27 111 36 149
34 339 118 444 197 96 72 142 134 190 257 61 156 132 284 222 399 88 112 232
338 299 469 24 48 59 110 76 137 50 81 123 232 172 357 52 130 104 352 135
578 6 41 15 95 20 120 6 25 10 111 11 191 0 125 -3 153 -20 192 -32 72 -37
253 -10 387 43 217 69 545 70 898 0 111 -4 202 -8 202 -5 0 -13 -107 -19 -237
-10 -233 -11 -240 -43 -317 -17 -43 -29 -87 -27 -97 7 -25 -10 -113 -39 -198
-13 -40 -24 -94 -24 -120 0 -25 -9 -73 -20 -106 -11 -33 -28 -103 -39 -155
-10 -52 -35 -140 -55 -195 -20 -55 -41 -122 -47 -149 -5 -28 -18 -59 -29 -71
-11 -12 -20 -27 -20 -34 0 -23 -65 -105 -160 -202 -52 -53 -110 -113 -129
-133 -19 -20 -39 -36 -46 -36 -6 0 -20 -9 -30 -20 -24 -26 -8 -26 66 1 75 28
94 21 84 -29 -4 -20 -11 -38 -16 -40 -5 -2 -9 -9 -9 -15 0 -6 29 18 65 53 36
35 65 59 65 53 0 -16 -37 -79 -74 -127 -16 -21 -56 -77 -89 -125 -52 -77 -87
-129 -176 -266 -79 -121 -64 -165 25 -77 141 140 423 326 468 309 26 -10 40
-57 27 -93 -6 -17 -11 -38 -11 -48 0 -10 -13 -37 -30 -61 -16 -24 -30 -47 -30
-50 0 -9 -54 -128 -82 -180 -21 -40 -101 -151 -122 -170 -6 -5 -27 -30 -46
-55 -19 -25 -52 -66 -75 -91 -22 -25 -53 -73 -70 -105 -16 -33 -35 -66 -41
-74 -7 -8 -22 -39 -34 -69 -11 -30 -29 -66 -39 -80 -10 -14 -21 -39 -25 -54
-4 -16 -25 -65 -46 -110 -22 -45 -40 -92 -40 -104 0 -32 -53 -161 -92 -225
-102 -167 -132 -193 -363 -307 -149 -74 -274 -128 -340 -148 -27 -8 -69 -23
-93 -34 -24 -11 -71 -27 -105 -36 -34 -8 -71 -22 -82 -29 -33 -24 -59 -17 -79
21 l-19 35 45 135 c25 75 56 150 69 167 22 28 148 118 167 118 18 0 146 90
195 137 89 85 162 240 197 418 6 33 15 74 21 90 5 17 10 44 11 60 1 17 7 59
14 94 15 72 2 133 -28 139 -10 2 -42 -8 -71 -22 -52 -24 -55 -25 -133 -12 -96
17 -162 37 -210 65 -74 44 -100 17 -50 -53 62 -87 140 -128 271 -141 76 -8
101 -22 110 -64 7 -34 -20 -142 -40 -157 -9 -6 -15 -27 -15 -48 0 -21 -10 -52
-24 -75 -13 -21 -28 -60 -31 -87 -9 -58 -38 -100 -120 -175 -98 -90 -147 -121
-186 -117 -32 3 -34 6 -37 42 -2 21 4 53 12 71 14 29 15 54 7 177 -5 79 -16
184 -25 233 -34 208 -40 294 -39 630 0 281 3 356 17 430 10 50 21 119 26 155
13 101 60 234 85 244 22 8 32 -8 85 -129 58 -130 74 -155 101 -155 24 0 28 16
33 160 3 69 15 204 26 300 12 96 26 211 31 255 5 44 9 153 9 243 0 141 -2 169
-19 208 -17 38 -24 44 -49 44 -35 0 -44 -10 -68 -70 -9 -25 -32 -65 -51 -89
-37 -50 -93 -214 -93 -275 0 -20 7 -51 16 -68 18 -34 8 -72 -26 -103 -24 -22
-118 -207 -155 -305 -15 -41 -31 -79 -35 -85 -11 -17 -48 -146 -59 -205 -5
-30 -14 -80 -20 -110 -21 -114 -33 -247 -27 -295 4 -27 10 -194 15 -370 7
-296 9 -325 30 -385 22 -63 22 -73 17 -330 -4 -208 -8 -277 -21 -320 -21 -68
-31 -120 -46 -230 -6 -47 -14 -94 -19 -105 -21 -48 -27 -81 -80 -386 -6 -30
-10 -83 -10 -117 0 -35 -4 -62 -10 -62 -5 0 -10 -18 -10 -39 0 -22 -4 -43 -10
-46 -5 -3 -10 -25 -9 -48 1 -60 12 -27 38 113 12 63 26 129 31 146 6 17 10 45
10 63 0 17 11 78 25 134 14 56 28 131 31 167 3 36 11 83 19 105 22 64 45 181
45 225 0 22 7 57 15 77 8 19 15 52 15 72 0 20 5 52 11 71 6 19 15 131 20 248
8 207 8 213 -13 250 -50 87 -50 88 -51 245 -2 337 10 772 21 802 7 17 16 66
21 110 9 80 59 240 106 343 14 29 50 88 80 131 30 43 55 83 55 89 0 6 23 35
51 66 45 49 54 68 79 154 16 54 32 123 35 153 12 93 24 131 41 125 9 -3 18 -6
20 -6 2 0 4 -26 4 -57 0 -59 -17 -155 -45 -253 -9 -30 -20 -77 -25 -105 -26
-137 -118 -285 -178 -285 -20 0 -72 -40 -72 -55 0 -3 -15 -38 -34 -79 -37 -80
-86 -262 -86 -319 0 -20 -5 -48 -12 -64 -11 -26 -13 -92 -16 -573 -2 -238 11
-429 29 -441 5 -3 11 -21 13 -40 3 -18 5 -34 6 -34 5 0 11 -85 17 -259 l8
-199 -27 -75 c-15 -41 -35 -83 -44 -94 -13 -14 -18 -41 -19 -115 -2 -54 -6
-111 -9 -128 -10 -46 -27 -108 -36 -130 -4 -11 -14 -40 -21 -65 -7 -25 -15
-49 -18 -55 -3 -5 -11 -44 -17 -85 -7 -41 -19 -118 -27 -171 -8 -53 -19 -104
-25 -115 -5 -10 -22 -75 -37 -144 -21 -98 -34 -133 -57 -163 -33 -43 -49 -86
-41 -116 3 -11 -4 -38 -14 -58 -11 -21 -23 -58 -27 -83 -4 -25 -16 -76 -28
-115 -12 -38 -22 -83 -22 -98 -1 -31 -21 -48 -51 -45 -20 3 -20 9 -15 368 12
888 6 1008 -70 1330 -11 47 -26 114 -35 150 -8 36 -30 124 -50 195 -19 72 -35
140 -35 153 0 12 -12 55 -26 95 -25 70 -44 141 -84 317 -11 47 -24 103 -30
125 -6 22 -17 68 -25 101 -7 34 -25 85 -40 114 -22 43 -25 57 -16 76 14 32 48
38 101 18 55 -20 224 -31 234 -16 10 17 -55 83 -103 105 -24 10 -65 40 -91 66
-25 25 -66 60 -89 76 -24 17 -52 44 -64 60 -12 17 -39 48 -62 70 -75 74 -177
190 -192 220 -9 17 -26 43 -39 58 -34 41 -85 131 -123 217 -19 41 -44 98 -57
125 -12 28 -26 63 -30 79 -4 16 -13 41 -20 55 -8 14 -19 51 -25 81 -6 30 -17
84 -24 120 -22 107 -28 256 -15 385 7 66 14 134 15 150 2 17 5 37 8 45 3 8 10
29 16 45 5 17 26 73 45 125 43 116 47 151 11 98 -14 -20 -25 -43 -25 -51 0 -8
-14 -40 -30 -71 -17 -31 -27 -56 -24 -56 4 0 1 -7 -6 -15 -6 -8 -9 -19 -5 -25
3 -5 -3 -22 -13 -38 -35 -49 -72 -150 -72 -196 0 -25 -9 -69 -21 -98 -17 -44
-19 -59 -10 -95 6 -23 13 -87 16 -141 3 -55 12 -119 21 -143 9 -24 20 -79 24
-122 6 -64 15 -93 48 -157 35 -67 39 -81 28 -93 -8 -7 -16 -22 -19 -33 -3 -14
-5 -15 -6 -3 0 9 -7 29 -15 44 -8 15 -12 33 -10 40 3 7 -9 26 -25 43 -25 24
-31 39 -31 74 0 24 -11 74 -25 112 -13 39 -22 80 -19 92 6 23 -10 64 -26 64
-16 0 -41 -32 -47 -62 -3 -17 -11 -27 -18 -24 -21 8 -15 -52 11 -103 14 -29
24 -66 24 -90 0 -46 21 -95 44 -104 8 -3 26 -28 40 -56 30 -58 70 -93 106 -90
41 3 61 -10 54 -36 -4 -18 -1 -25 15 -30 12 -3 21 -13 21 -20 0 -17 36 -38 50
-30 6 3 10 -4 10 -16 0 -18 -4 -20 -22 -14 -13 4 -36 9 -53 12 -16 3 -35 9
-41 14 -20 16 -105 59 -116 59 -6 0 -4 -8 5 -18 21 -23 13 -105 -14 -140 -10
-13 -21 -37 -25 -55 -8 -37 -34 -76 -50 -77 -22 0 -74 -156 -74 -222 0 -73
-42 -138 -91 -138 -41 0 -49 -18 -43 -92 3 -39 1 -69 -5 -72 -5 -4 -13 -27
-17 -53 -6 -38 -4 -49 11 -59 17 -12 17 -18 5 -54 -7 -22 -17 -40 -21 -40 -16
0 -89 -167 -90 -205 -1 -22 -4 -51 -8 -65 l-7 -25 -32 34 c-26 27 -32 41 -32
78 0 25 8 62 19 82 67 130 82 186 92 330 5 77 8 393 6 702 -2 485 -1 557 11
528 26 -62 35 -160 27 -289 -4 -69 -7 -217 -7 -330 -1 -165 2 -211 15 -233 14
-27 15 -28 22 -8 3 12 13 21 22 21 13 0 14 46 9 423 -6 443 -14 594 -34 640
-15 35 -9 535 7 617 5 30 17 93 25 140 42 234 99 368 218 513 43 52 57 77 43
77 -20 0 -95 -54 -114 -84 -13 -20 -30 -36 -38 -36 -7 0 -13 -6 -13 -14 0 -7
-9 -16 -19 -19 -12 -3 -19 -12 -17 -23 3 -17 -14 -48 -53 -96 -10 -12 -23 -15
-39 -11 -16 4 -29 -1 -43 -16 -11 -11 -28 -21 -39 -21 -28 0 -51 -11 -44 -21
3 -5 14 -9 25 -9 10 0 19 -7 19 -15 0 -8 -9 -15 -20 -15 -11 0 -20 7 -20 15 0
8 -6 15 -14 15 -21 0 -39 -27 -33 -49 3 -11 0 -22 -7 -24 -8 -3 -8 -8 2 -18 6
-7 12 -22 12 -34 0 -11 9 -27 20 -35 25 -18 26 -34 1 -27 -18 4 -19 -1 -19
-64 0 -50 4 -75 17 -91 25 -32 34 -163 22 -318 -7 -81 -7 -139 0 -165 20 -83
42 -212 45 -270 l4 -60 -15 40 c-8 22 -24 78 -35 124 -12 47 -26 94 -32 105
-6 11 -25 76 -43 145 -18 70 -40 151 -49 181 -25 83 -39 312 -32 510 12 322
21 420 45 483 12 31 21 64 19 73 -2 10 -9 1 -17 -22z m226 -488 c-25 -26 -37
-25 -37 4 0 16 52 42 58 29 2 -4 -8 -19 -21 -33z m3843 -1303 c0 -104 -26
-209 -62 -249 -10 -11 -22 -34 -27 -50 -5 -16 -13 -38 -17 -49 -7 -18 -6 -18
7 -5 26 26 75 104 88 140 7 19 17 44 21 55 17 44 30 104 30 142 0 21 6 48 14
59 14 18 15 18 21 2 4 -10 0 -39 -8 -65 -8 -27 -20 -70 -26 -97 -7 -27 -22
-72 -35 -100 -13 -28 -26 -63 -30 -77 -17 -77 -133 -219 -178 -219 -13 0 -34
7 -46 16 -13 9 -31 13 -43 9 -12 -4 -20 -3 -17 1 14 32 49 84 85 126 54 64
112 186 153 318 54 176 70 186 70 43z m-3173 -578 c8 -22 -6 -33 -17 -15 -13
20 -12 30 0 30 6 0 13 -7 17 -15z m-758 -1332 c1 -65 5 -128 8 -140 7 -30 -12
-30 -31 0 -24 36 -23 252 1 317 10 26 20 -52 22 -177z m1711 -2938 c136 -22
193 -35 212 -52 15 -13 17 -39 18 -203 0 -175 8 -239 31 -264 5 -6 9 -27 9
-47 0 -32 -5 -40 -37 -60 -30 -18 -52 -23 -103 -22 -36 0 -78 6 -93 12 -16 6
-51 11 -78 11 -27 0 -49 5 -49 10 0 6 -10 10 -22 10 -28 0 -127 56 -154 88
-33 37 -44 89 -51 231 -5 110 -3 137 11 176 19 47 57 83 116 109 44 19 73 19
190 1z"/>
<path d="M6647 8696 c-17 -13 -16 -15 12 -21 36 -8 52 0 44 20 -7 19 -32 19
-56 1z"/>
<path d="M6540 8637 c-49 -27 -127 -75 -187 -116 -59 -40 -84 -78 -61 -92 13
-8 58 10 58 23 0 5 11 20 24 33 14 14 29 30 33 37 4 7 15 18 24 23 9 6 42 28
75 50 32 22 66 43 74 47 13 6 13 7 0 7 -8 1 -26 -5 -40 -12z"/>
<path d="M11136 8421 c-17 -28 60 -111 103 -111 33 0 26 34 -15 80 -35 38 -75
52 -88 31z"/>
<path d="M6042 8378 c-16 -16 -15 -25 4 -32 8 -3 12 -2 9 3 -3 5 -1 12 5 16
12 7 13 25 2 25 -4 0 -13 -5 -20 -12z"/>
<path d="M6023 8304 c-3 -8 -1 -20 6 -27 8 -8 11 -4 11 16 0 30 -7 35 -17 11z"/>
<path d="M6817 8260 c-26 -27 -47 -54 -47 -59 0 -5 -6 -16 -12 -23 -20 -21
-101 -128 -135 -178 -34 -50 -133 -237 -133 -251 0 -5 -28 -66 -62 -136 l-61
-128 -4 -105 c-4 -103 -3 -104 14 -75 10 19 18 60 21 115 4 74 8 90 32 120 36
46 62 99 93 190 39 114 163 344 198 366 5 3 16 20 23 39 8 18 27 42 43 51 15
10 41 31 57 46 17 15 33 28 38 28 4 0 8 11 8 25 0 37 -20 31 -73 -25z"/>
<path d="M6010 8240 c0 -5 5 -10 11 -10 5 0 7 5 4 10 -3 6 -8 10 -11 10 -2 0
-4 -4 -4 -10z"/>
<path d="M10904 8161 c10 -11 41 -31 69 -46 29 -14 79 -41 113 -59 33 -18 71
-35 82 -38 27 -7 29 -43 5 -56 -36 -19 -123 -24 -170 -10 -47 13 -113 64 -113
87 0 6 -11 24 -25 39 -30 32 -31 28 -6 -24 23 -46 14 -63 -25 -45 -23 10 -26
10 -16 -2 7 -8 9 -17 6 -20 -12 -12 7 -58 34 -85 71 -72 159 -93 263 -63 117
33 139 51 139 112 0 46 15 64 67 84 97 37 133 68 133 115 0 34 -24 33 -91 -1
-58 -30 -72 -33 -141 -31 -62 2 -79 -1 -86 -14 -8 -14 -16 -10 -56 31 -26 26
-50 45 -53 41 -3 -3 0 -12 7 -21 23 -28 2 -28 -60 -1 -34 14 -68 26 -77 26
-14 0 -14 -2 1 -19z"/>
<path d="M9391 6524 c-36 -30 -43 -74 -13 -74 22 0 43 22 60 63 15 35 15 37
-2 37 -8 0 -28 -12 -45 -26z"/>
<path d="M9381 6074 c0 -11 3 -14 6 -6 3 7 2 16 -1 19 -3 4 -6 -2 -5 -13z"/>
<path d="M9348 6020 c-7 -16 -16 -30 -19 -30 -12 0 -51 -88 -47 -106 2 -11 12
-19 23 -19 17 0 20 7 20 42 0 26 8 52 21 70 23 31 37 73 24 73 -5 0 -14 -13
-22 -30z"/>
<path d="M6216 6024 c-9 -24 -7 -82 3 -88 12 -8 21 18 21 59 0 37 -14 54 -24
29z"/>
<path d="M7035 5813 c4 -10 11 -47 16 -83 17 -130 21 -150 30 -150 5 0 9 -20
9 -45 0 -26 5 -45 11 -45 7 0 9 13 5 38 -3 20 -13 87 -21 149 -13 105 -29 153
-48 153 -5 0 -6 -8 -2 -17z"/>
<path d="M9671 5764 c0 -11 3 -14 6 -6 3 7 2 16 -1 19 -3 4 -6 -2 -5 -13z"/>
<path d="M9591 5662 c-30 -42 -26 -50 5 -12 15 17 24 33 21 36 -2 3 -14 -8
-26 -24z"/>
<path d="M9540 5595 c-7 -9 -8 -15 -2 -15 5 0 12 7 16 15 3 8 4 15 2 15 -2 0
-9 -7 -16 -15z"/>
<path d="M9500 5555 c-7 -8 -8 -15 -2 -15 5 0 15 7 22 15 7 8 8 15 2 15 -5 0
-15 -7 -22 -15z"/>
<path d="M7111 5431 c-1 -53 15 -127 31 -145 4 -6 9 -33 10 -60 1 -40 2 -43 5
-17 6 43 -12 171 -31 231 l-14 45 -1 -54z"/>
<path d="M9421 5444 c0 -11 3 -14 6 -6 3 7 2 16 -1 19 -3 4 -6 -2 -5 -13z"/>
<path d="M9382 5380 c0 -14 2 -19 5 -12 2 6 2 18 0 25 -3 6 -5 1 -5 -13z"/>
<path d="M9361 5342 c-1 -7 -10 -22 -21 -34 -11 -12 -20 -34 -20 -50 0 -15 -4
-28 -8 -28 -5 0 -13 -16 -19 -35 -6 -19 -8 -35 -3 -35 15 0 84 166 76 184 -3
7 -5 6 -5 -2z"/>
<path d="M7171 5131 c-1 -25 3 -58 8 -75 5 -17 17 -65 26 -106 22 -100 37
-153 47 -164 4 -6 8 -19 8 -30 0 -12 7 -30 15 -40 31 -40 16 50 -34 211 -27
87 -54 178 -59 203 l-10 45 -1 -44z"/>
<path d="M9266 5123 c-4 -9 -2 -21 4 -27 7 -7 10 -2 10 17 0 31 -5 34 -14 10z"/>
<path d="M9111 4744 c0 -11 3 -14 6 -6 3 7 2 16 -1 19 -3 4 -6 -2 -5 -13z"/>
<path d="M7320 4480 c0 -5 5 -10 10 -10 6 0 10 5 10 10 0 6 -4 10 -10 10 -5 0
-10 -4 -10 -10z"/>
<path d="M11772 4458 c-24 -30 -42 -95 -42 -152 1 -50 3 -58 12 -42 11 19 49
198 44 204 -2 1 -8 -3 -14 -10z"/>
<path d="M7075 4430 c-3 -5 1 -10 9 -10 9 0 16 5 16 10 0 6 -4 10 -9 10 -6 0
-13 -4 -16 -10z"/>
<path d="M6977 4413 c-10 -3 -29 -15 -44 -29 -14 -13 -35 -24 -45 -24 -24 0
-60 -19 -71 -36 -4 -7 -23 -16 -42 -20 -45 -8 -48 -22 -43 -171 4 -94 10 -134
32 -198 52 -156 56 -164 73 -158 13 5 13 3 -1 -24 -15 -30 -15 -31 7 -37 48
-13 79 -4 154 41 43 25 86 55 96 65 10 10 32 21 48 25 16 3 26 10 23 15 -3 5
2 16 12 23 17 13 17 14 2 15 -10 0 -26 -10 -37 -21 -11 -12 -27 -19 -35 -16
-8 3 -17 -1 -20 -9 -3 -8 -13 -14 -23 -14 -9 0 -35 -6 -58 -14 -93 -31 -105
-34 -111 -25 -3 5 -16 9 -29 9 -28 0 -41 16 -37 47 2 11 -2 24 -7 28 -8 4 -8
12 -1 25 6 11 9 30 7 42 -3 13 -12 69 -22 124 -17 99 -17 103 1 140 17 34 86
95 124 110 8 3 23 10 32 15 10 5 35 9 55 9 36 1 37 2 19 15 -11 8 -17 18 -13
21 7 8 -11 35 -22 33 -3 -1 -14 -3 -24 -6z"/>
<path d="M6672 4353 c-39 -14 -53 -124 -31 -247 18 -101 60 -254 76 -273 13
-17 14 -17 9 2 -2 11 -7 47 -11 80 -4 33 -15 94 -24 135 -17 72 -15 171 3 272
6 29 -1 38 -22 31z"/>
<path d="M6740 3791 c0 -6 4 -13 10 -16 6 -3 7 1 4 9 -7 18 -14 21 -14 7z"/>
<path d="M7362 2120 c0 -19 2 -27 5 -17 2 9 2 25 0 35 -3 9 -5 1 -5 -18z"/>
</g>
</svg>
